Sen-Regular.ufo
<glyph name="four" format="1">
  <advance width="550"/>
  <unicode hex="0034"/>
  <outline>
    <contour>
      <point x="390" y="670" type="line"/>
      <point x="286" y="458"/>
      <point x="141" y="293"/>
      <point x="27" y="181" type="curve"/>
      <point x="27" y="148" type="line"/>
      <point x="333" y="148" type="line"/>
      <point x="333" y="0" type="line"/>
      <point x="423" y="0" type="line"/>
      <point x="423" y="148" type="line"/>
      <point x="528" y="148" type="line"/>
      <point x="528" y="224" type="line"/>
      <point x="423" y="224" type="line"/>
      <point x="423" y="670" type="line"/>
    </contour>
    <contour>
      <point x="333" y="224" type="line"/>
      <point x="167" y="224" type="line"/>
      <point x="233" y="299"/>
      <point x="280" y="357"/>
      <point x="333" y="440" type="curve"/>
    </contour>
  </outline>
</glyph>
<glyph name="B" format="1">
  <advance width="666"/>
  <unicode hex="0042"/>
  <outline>
    <contour>
      <point x="95" y="670" type="line"/>
      <point x="95" y="15" type="line"/>
      <point x="158" y="1"/>
      <point x="256" y="-10"/>
      <point x="339" y="-10" type="curve" smooth="yes"/>
      <point x="501" y="-10"/>
      <point x="606" y="77"/>
      <point x="606" y="189" type="curve" smooth="yes"/>
      <point x="606" y="286"/>
      <point x="535" y="332"/>
      <point x="476" y="344" type="curve"/>
      <point x="545" y="370"/>
      <point x="574" y="434"/>
      <point x="574" y="489" type="curve" smooth="yes"/>
      <point x="574" y="598"/>
      <point x="482" y="670"/>
      <point x="363" y="670" type="curve" smooth="yes"/>
    </contour>
    <contour>
      <point x="426" y="582"/>
      <point x="482" y="550"/>
      <point x="482" y="479" type="curve" smooth="yes"/>
      <point x="482" y="418"/>
      <point x="426" y="376"/>
      <point x="342" y="376" type="curve" smooth="yes"/>
      <point x="176" y="376" type="line"/>
      <point x="176" y="297" type="line"/>
      <point x="344" y="297" type="line" smooth="yes"/>
      <point x="437" y="297"/>
      <point x="514" y="262"/>
      <point x="514" y="189" type="curve" smooth="yes"/>
      <point x="514" y="119"/>
      <point x="437" y="78"/>
      <point x="337" y="78" type="curve" smooth="yes"/>
      <point x="300" y="78"/>
      <point x="240" y="81"/>
      <point x="192" y="90" type="curve"/>
      <point x="192" y="582" type="line"/>
      <point x="342" y="582" type="line" smooth="yes"/>
    </contour>
  </outline>
</glyph>
<glyph name="D" format="1">
  <advance width="744"/>
  <unicode hex="0044"/>
  <outline>
    <contour>
      <point x="95" y="670" type="line"/>
      <point x="95" y="15" type="line"/>
      <point x="176" y="0"/>
      <point x="249" y="-10"/>
      <point x="341" y="-10" type="curve" smooth="yes"/>
      <point x="566" y="-10"/>
      <point x="694" y="144"/>
      <point x="694" y="342" type="curve" smooth="yes"/>
      <point x="694" y="558"/>
      <point x="515" y="670"/>
      <point x="308" y="670" type="curve" smooth="yes"/>
    </contour>
    <contour>
      <point x="458" y="582"/>
      <point x="602" y="506"/>
      <point x="602" y="342" type="curve" smooth="yes"/>
      <point x="602" y="192"/>
      <point x="503" y="78"/>
      <point x="341" y="78" type="curve" smooth="yes"/>
      <point x="293" y="78"/>
      <point x="242" y="82"/>
      <point x="192" y="88" type="curve"/>
      <point x="192" y="582" type="line"/>
      <point x="308" y="582" type="line" smooth="yes"/>
    </contour>
    <contour>
      <point x="382" y="335" type="move" name="center"/>
    </contour>
    <contour>
      <point x="352" y="670" type="move" name="top"/>
    </contour>
  </outline>
</glyph>
<glyph name="E" format="1">
  <advance width="619"/>
  <unicode hex="0045"/>
  <outline>
    <contour>
      <point x="95" y="670" type="line"/>
      <point x="95" y="0" type="line"/>
      <point x="554" y="0" type="line"/>
      <point x="554" y="90" type="line"/>
      <point x="192" y="90" type="line"/>
      <point x="192" y="580" type="line"/>
      <point x="554" y="580" type="line"/>
      <point x="554" y="670" type="line"/>
    </contour>
    <contour>
      <point x="152" y="388" type="line"/>
      <point x="152" y="298" type="line"/>
      <point x="511" y="298" type="line"/>
      <point x="511" y="388" type="line"/>
    </contour>
    <contour>
      <point x="559" y="10" type="move" name="ogonek"/>
    </contour>
    <contour>
      <point x="305" y="0" type="move" name="bottom"/>
    </contour>
    <contour>
      <point x="325" y="670" type="move" name="top"/>
    </contour>
  </outline>
</glyph>
<glyph name="F" format="1">
  <advance width="613"/>
  <unicode hex="0046"/>
  <outline>
    <contour>
      <point x="95" y="670" type="line"/>
      <point x="95" y="0" type="line"/>
      <point x="192" y="0" type="line"/>
      <point x="192" y="580" type="line"/>
      <point x="533" y="580" type="line"/>
      <point x="533" y="670" type="line"/>
    </contour>
    <contour>
      <point x="172" y="361" type="line"/>
      <point x="172" y="271" type="line"/>
      <point x="473" y="271" type="line"/>
      <point x="473" y="361" type="line"/>
    </contour>
  </outline>
</glyph>
<glyph name="H" format="1">
  <advance width="759"/>
  <unicode hex="0048"/>
  <outline>
    <contour>
      <point x="567" y="670" type="line"/>
      <point x="567" y="0" type="line"/>
      <point x="664" y="0" type="line"/>
      <point x="664" y="670" type="line"/>
    </contour>
    <contour>
      <point x="95" y="670" type="line"/>
      <point x="95" y="0" type="line"/>
      <point x="192" y="0" type="line"/>
      <point x="192" y="670" type="line"/>
    </contour>
    <contour>
      <point x="172" y="388" type="line"/>
      <point x="172" y="298" type="line"/>
      <point x="595" y="298" type="line"/>
      <point x="595" y="388" type="line"/>
    </contour>
  </outline>
</glyph>
<glyph name="I" format="1">
  <advance width="513"/>
  <unicode hex="0049"/>
  <outline>
    <contour>
      <point x="208" y="670" type="line"/>
      <point x="208" y="0" type="line"/>
      <point x="305" y="0" type="line"/>
      <point x="305" y="670" type="line"/>
    </contour>
    <contour>
      <point x="95" y="80" type="line"/>
      <point x="95" y="0" type="line"/>
      <point x="418" y="0" type="line"/>
      <point x="418" y="80" type="line"/>
    </contour>
    <contour>
      <point x="95" y="670" type="line"/>
      <point x="95" y="590" type="line"/>
      <point x="418" y="590" type="line"/>
      <point x="418" y="670" type="line"/>
    </contour>
    <contour>
      <point x="305" y="10" type="move" name="ogonek"/>
    </contour>
    <contour>
      <point x="257" y="670" type="move" name="top"/>
    </contour>
  </outline>
</glyph>
<glyph name="J" format="1">
  <advance width="371"/>
  <unicode hex="004A"/>
  <outline>
    <contour>
      <point x="179" y="672" type="line"/>
      <point x="179" y="16" type="line" smooth="yes"/>
      <point x="179" y="-65"/>
      <point x="123" y="-127"/>
      <point x="9" y="-168" type="curve"/>
      <point x="53" y="-255" type="line"/>
      <point x="178" y="-210"/>
      <point x="276" y="-136"/>
      <point x="276" y="34" type="curve" smooth="yes"/>
      <point x="276" y="672" type="line"/>
    </contour>
  </outline>
</glyph>
<glyph name="K" format="1">
  <advance width="664"/>
  <unicode hex="004B"/>
  <outline>
    <contour>
      <point x="498" y="670" type="line"/>
      <point x="124" y="248" type="line"/>
      <point x="153" y="160" type="line"/>
      <point x="624" y="670" type="line"/>
    </contour>
    <contour>
      <point x="95" y="670" type="line"/>
      <point x="95" y="0" type="line"/>
      <point x="192" y="0" type="line"/>
      <point x="192" y="670" type="line"/>
    </contour>
    <contour>
      <point x="243" y="329" type="line"/>
      <point x="529" y="0" type="line"/>
      <point x="654" y="0" type="line"/>
      <point x="311" y="398" type="line"/>
    </contour>
  </outline>
</glyph>
<glyph name="L" format="1">
  <advance width="621"/>
  <unicode hex="004C"/>
  <outline>
    <contour>
      <point x="95" y="670" type="line"/>
      <point x="95" y="0" type="line"/>
      <point x="561" y="0" type="line"/>
      <point x="561" y="90" type="line"/>
      <point x="192" y="90" type="line"/>
      <point x="192" y="670" type="line"/>
    </contour>
    <contour>
      <point x="156" y="670" type="move" name="top"/>
    </contour>
    <contour>
      <point x="311" y="0" type="move" name="bottom"/>
    </contour>
    <contour>
      <point x="581" y="670" type="move" name="topright"/>
    </contour>
  </outline>
</glyph>
<glyph name="M" format="1">
  <advance width="833"/>
  <unicode hex="004D"/>
  <outline>
    <contour>
      <point x="702" y="670" type="line"/>
      <point x="419" y="372" type="line"/>
      <point x="131" y="670" type="line"/>
      <point x="95" y="670" type="line"/>
      <point x="95" y="0" type="line"/>
      <point x="192" y="0" type="line"/>
      <point x="192" y="480" type="line"/>
      <point x="406" y="260" type="line"/>
      <point x="432" y="260" type="line"/>
      <point x="641" y="480" type="line"/>
      <point x="641" y="0" type="line"/>
      <point x="738" y="0" type="line"/>
      <point x="738" y="670" type="line"/>
    </contour>
  </outline>
</glyph>
<glyph name="N" format="1">
  <advance width="762"/>
  <unicode hex="004E"/>
  <outline>
    <contour>
      <point x="571" y="670" type="line"/>
      <point x="571" y="195" type="line"/>
      <point x="131" y="670" type="line"/>
      <point x="95" y="670" type="line"/>
      <point x="95" y="0" type="line"/>
      <point x="192" y="0" type="line"/>
      <point x="192" y="469" type="line"/>
      <point x="631" y="0" type="line"/>
      <point x="667" y="0" type="line"/>
      <point x="667" y="670" type="line"/>
    </contour>
    <contour>
      <point x="379" y="670" type="move" name="top"/>
    </contour>
    <contour>
      <point x="381" y="0" type="move" name="bottom"/>
    </contour>
  </outline>
</glyph>
<glyph name="P" format="1">
  <advance width="652"/>
  <unicode hex="0050"/>
  <outline>
    <contour>
      <point x="95" y="670" type="line"/>
      <point x="95" y="0" type="line"/>
      <point x="192" y="0" type="line"/>
      <point x="192" y="580" type="line"/>
      <point x="344" y="580" type="line" smooth="yes"/>
      <point x="430" y="580"/>
      <point x="510" y="529"/>
      <point x="510" y="444" type="curve" smooth="yes"/>
      <point x="510" y="369"/>
      <point x="452" y="314"/>
      <point x="351" y="314" type="curve" smooth="yes"/>
      <point x="283" y="314"/>
      <point x="212" y="333"/>
      <point x="180" y="350" type="curve"/>
      <point x="180" y="268" type="line"/>
      <point x="213" y="250"/>
      <point x="277" y="229"/>
      <point x="354" y="229" type="curve" smooth="yes"/>
      <point x="492" y="229"/>
      <point x="602" y="326"/>
      <point x="602" y="444" type="curve" smooth="yes"/>
      <point x="602" y="582"/>
      <point x="484" y="670"/>
      <point x="369" y="670" type="curve" smooth="yes"/>
    </contour>
  </outline>
</glyph>
<glyph name="R" format="1">
  <advance width="661"/>
  <unicode hex="0052"/>
  <outline>
    <contour>
      <point x="95" y="670" type="line"/>
      <point x="95" y="0" type="line"/>
      <point x="192" y="0" type="line"/>
      <point x="192" y="582" type="line"/>
      <point x="337" y="582" type="line" smooth="yes"/>
      <point x="423" y="582"/>
      <point x="493" y="544"/>
      <point x="493" y="469" type="curve" smooth="yes"/>
      <point x="493" y="397"/>
      <point x="435" y="351"/>
      <point x="334" y="351" type="curve" smooth="yes"/>
      <point x="280" y="351"/>
      <point x="223" y="359"/>
      <point x="178" y="372" type="curve"/>
      <point x="178" y="297" type="line"/>
      <point x="211" y="289"/>
      <point x="304" y="278"/>
      <point x="347" y="278" type="curve" smooth="yes"/>
      <point x="463" y="278"/>
      <point x="585" y="344"/>
      <point x="585" y="469" type="curve" smooth="yes"/>
      <point x="585" y="607"/>
      <point x="467" y="670"/>
      <point x="352" y="670" type="curve" smooth="yes"/>
    </contour>
    <contour>
      <point x="178" y="287" type="line"/>
      <point x="503" y="0" type="line"/>
      <point x="641" y="0" type="line"/>
      <point x="250" y="334" type="line"/>
    </contour>
    <contour>
      <point x="293" y="670" type="move" name="top"/>
    </contour>
    <contour>
      <point x="351" y="0" type="move" name="bottom"/>
    </contour>
  </outline>
</glyph>
<glyph name="T" format="1">
  <advance width="611"/>
  <unicode hex="0054"/>
  <outline>
    <contour>
      <point x="257" y="670" type="line"/>
      <point x="257" y="0" type="line"/>
      <point x="354" y="0" type="line"/>
      <point x="354" y="670" type="line"/>
    </contour>
    <contour>
      <point x="30" y="673" type="line"/>
      <point x="30" y="593" type="line"/>
      <point x="581" y="593" type="line"/>
      <point x="581" y="673" type="line"/>
    </contour>
    <contour>
      <point x="306" y="335" type="move" name="center"/>
    </contour>
    <contour>
      <point x="306" y="0" type="move" name="bottom"/>
    </contour>
    <contour>
      <point x="306" y="670" type="move" name="top"/>
    </contour>
  </outline>
</glyph>
<glyph name="U" format="1">
  <advance width="736"/>
  <unicode hex="0055"/>
  <outline>
    <contour>
      <point x="554" y="672" type="line"/>
      <point x="554" y="268" type="line" smooth="yes"/>
      <point x="554" y="132"/>
      <point x="468" y="83"/>
      <point x="368" y="82" type="curve" smooth="yes"/>
      <point x="268" y="81"/>
      <point x="182" y="132"/>
      <point x="182" y="268" type="curve" smooth="yes"/>
      <point x="182" y="672" type="line"/>
      <point x="85" y="672" type="line"/>
      <point x="85" y="265" type="line" smooth="yes"/>
      <point x="85" y="90"/>
      <point x="211" y="-13"/>
      <point x="368" y="-13" type="curve" smooth="yes"/>
      <point x="525" y="-13"/>
      <point x="651" y="90"/>
      <point x="651" y="265" type="curve" smooth="yes"/>
      <point x="651" y="672" type="line"/>
    </contour>
    <contour>
      <point x="461" y="10" type="move" name="ogonek"/>
    </contour>
    <contour>
      <point x="368" y="670" type="move" name="top"/>
    </contour>
  </outline>
</glyph>
<glyph name="Z" format="1">
  <advance width="637"/>
  <unicode hex="005A"/>
  <outline>
    <contour>
      <point x="60" y="670" type="line"/>
      <point x="60" y="580" type="line"/>
      <point x="432" y="580" type="line"/>
      <point x="60" y="36" type="line"/>
      <point x="60" y="0" type="line"/>
      <point x="577" y="0" type="line"/>
      <point x="577" y="90" type="line"/>
      <point x="194" y="90" type="line"/>
      <point x="577" y="634" type="line"/>
      <point x="577" y="670" type="line"/>
    </contour>
    <contour>
      <point x="319" y="670" type="move" name="top"/>
    </contour>
  </outline>
</glyph>
<glyph name="grave" format="1">
  <advance width="314"/>
  <unicode hex="0060"/>
  <outline>
    <contour>
      <point x="30" y="710" type="line"/>
      <point x="162" y="560" type="line"/>
      <point x="234" y="560" type="line"/>
      <point x="134" y="710" type="line"/>
    </contour>
    <contour>
      <point x="198" y="500" type="move" name="_top"/>
    </contour>
  </outline>
</glyph>
<glyph name="i" format="1">
  <advance width="306"/>
  <unicode hex="0069"/>
  <outline>
    <contour>
      <point x="133" y="705"/>
      <point x="105" y="677"/>
      <point x="105" y="642" type="curve" smooth="yes"/>
      <point x="105" y="608"/>
      <point x="133" y="579"/>
      <point x="168" y="579" type="curve" smooth="yes"/>
      <point x="202" y="579"/>
      <point x="231" y="608"/>
      <point x="231" y="642" type="curve" smooth="yes"/>
      <point x="231" y="677"/>
      <point x="202" y="705"/>
      <point x="168" y="705" type="curve" smooth="yes"/>
    </contour>
    <component base="idotless"/>
  </outline>
</glyph>
<glyph name="j" format="1">
  <advance width="291"/>
  <unicode hex="006A"/>
  <outline>
    <contour>
      <point x="122" y="500" type="line"/>
      <point x="122" y="-5" type="line" smooth="yes"/>
      <point x="122" y="-87"/>
      <point x="83" y="-134"/>
      <point x="-5" y="-176" type="curve"/>
      <point x="32" y="-250" type="line"/>
      <point x="137" y="-207"/>
      <point x="204" y="-128"/>
      <point x="204" y="7" type="curve" smooth="yes"/>
      <point x="204" y="500" type="line"/>
    </contour>
    <contour>
      <point x="15" y="500" type="line"/>
      <point x="15" y="423" type="line"/>
      <point x="198" y="423" type="line"/>
      <point x="198" y="500" type="line"/>
    </contour>
    <contour>
      <point x="123" y="705"/>
      <point x="95" y="677"/>
      <point x="95" y="642" type="curve" smooth="yes"/>
      <point x="95" y="608"/>
      <point x="123" y="579"/>
      <point x="158" y="579" type="curve" smooth="yes"/>
      <point x="192" y="579"/>
      <point x="221" y="608"/>
      <point x="221" y="642" type="curve" smooth="yes"/>
      <point x="221" y="677"/>
      <point x="192" y="705"/>
      <point x="158" y="705" type="curve" smooth="yes"/>
    </contour>
  </outline>
</glyph>
<glyph name="sterling" format="1">
  <advance width="498"/>
  <unicode hex="00A3"/>
  <outline>
    <contour>
      <point x="255" y="680"/>
      <point x="156" y="606"/>
      <point x="156" y="459" type="curve" smooth="yes"/>
      <point x="156" y="263" type="line" smooth="yes"/>
      <point x="156" y="189"/>
      <point x="133" y="90"/>
      <point x="75" y="70" type="curve"/>
      <point x="75" y="0" type="line"/>
      <point x="466" y="0" type="line"/>
      <point x="466" y="90" type="line"/>
      <point x="177" y="90" type="line"/>
      <point x="214" y="128"/>
      <point x="238" y="189"/>
      <point x="238" y="263" type="curve" smooth="yes"/>
      <point x="238" y="450" type="line" smooth="yes"/>
      <point x="238" y="554"/>
      <point x="297" y="601"/>
      <point x="356" y="602" type="curve" smooth="yes"/>
      <point x="404" y="603"/>
      <point x="454" y="579"/>
      <point x="484" y="553" type="curve"/>
      <point x="484" y="633" type="line"/>
      <point x="462" y="656"/>
      <point x="415" y="680"/>
      <point x="361" y="680" type="curve" smooth="yes"/>
    </contour>
    <contour>
      <point x="77" y="378" type="line"/>
      <point x="77" y="298" type="line"/>
      <point x="394" y="298" type="line"/>
      <point x="394" y="378" type="line"/>
    </contour>
  </outline>
</glyph>
<glyph name="dieresis" format="1">
  <advance width="496"/>
  <unicode hex="00A8"/>
  <outline>
    <component base="dotaccent" xOffset="203" yOffset="15"/>
    <component base="dotaccent" xOffset="-7" yOffset="15"/>
    <contour>
      <point x="248" y="500" type="move" name="_top"/>
    </contour>
  </outline>
</glyph>
<glyph name="Thorn" format="1">
  <advance width="619"/>
  <unicode hex="00DE"/>
  <outline>
    <contour>
      <point x="95" y="670" type="line"/>
      <point x="95" y="0" type="line"/>
      <point x="192" y="0" type="line"/>
      <point x="192" y="172" type="line"/>
      <point x="238" y="157"/>
      <point x="285" y="148"/>
      <point x="344" y="148" type="curve" smooth="yes"/>
      <point x="486" y="148"/>
      <point x="569" y="242"/>
      <point x="569" y="352" type="curve" smooth="yes"/>
      <point x="569" y="472"/>
      <point x="458" y="550"/>
      <point x="343" y="550" type="curve" smooth="yes"/>
      <point x="192" y="550" type="line"/>
      <point x="192" y="670" type="line"/>
    </contour>
    <contour>
      <point x="404" y="460"/>
      <point x="467" y="419"/>
      <point x="467" y="352" type="curve" smooth="yes"/>
      <point x="467" y="285"/>
      <point x="429" y="233"/>
      <point x="338" y="233" type="curve" smooth="yes"/>
      <point x="292" y="233"/>
      <point x="234" y="240"/>
      <point x="192" y="263" type="curve"/>
      <point x="192" y="460" type="line"/>
      <point x="318" y="460" type="line" smooth="yes"/>
    </contour>
  </outline>
</glyph>
<glyph name="Eng" format="1">
  <advance width="762"/>
  <unicode hex="014A"/>
  <outline>
    <contour>
      <point x="631" y="135" type="line"/>
      <point x="131" y="670" type="line"/>
      <point x="95" y="670" type="line"/>
      <point x="95" y="0" type="line"/>
      <point x="192" y="0" type="line"/>
      <point x="192" y="469" type="line"/>
      <point x="598" y="35" type="line"/>
    </contour>
    <component base="J" xOffset="391"/>
    <contour>
      <point x="381" y="670" type="move" name="top"/>
    </contour>
    <contour>
      <point x="381" y="0" type="move" name="bottom"/>
    </contour>
  </outline>
</glyph>
<glyph name="eng" format="1">
  <advance width="585"/>
  <unicode hex="014B"/>
  <outline>
    <contour>
      <point x="423" y="88" type="line"/>
      <point x="423" y="-5" type="line" smooth="yes"/>
      <point x="423" y="-87"/>
      <point x="384" y="-139"/>
      <point x="296" y="-181" type="curve"/>
      <point x="333" y="-255" type="line"/>
      <point x="438" y="-212"/>
      <point x="505" y="-128"/>
      <point x="505" y="-13" type="curve" smooth="yes"/>
      <point x="505" y="88" type="line"/>
    </contour>
    <component base="n"/>
  </outline>
</glyph>
<glyph name="circumflex" format="1">
  <advance width="484"/>
  <unicode hex="02C6"/>
  <outline>
    <contour>
      <point x="200" y="710" type="line"/>
      <point x="80" y="560" type="line"/>
      <point x="152" y="560" type="line"/>
      <point x="242" y="659" type="line"/>
      <point x="332" y="560" type="line"/>
      <point x="404" y="560" type="line"/>
      <point x="284" y="710" type="line"/>
    </contour>
    <contour>
      <point x="242" y="500" type="move" name="_top"/>
    </contour>
  </outline>
</glyph>
<glyph name="caron" format="1">
  <advance width="484"/>
  <unicode hex="02C7"/>
  <outline>
    <contour>
      <point x="220" y="560" type="line"/>
      <point x="264" y="560" type="line"/>
      <point x="404" y="710" type="line"/>
      <point x="332" y="710" type="line"/>
      <point x="242" y="611" type="line"/>
      <point x="152" y="710" type="line"/>
      <point x="80" y="710" type="line"/>
    </contour>
    <contour>
      <point x="242" y="500" type="move" name="_top"/>
    </contour>
  </outline>
</glyph>
<glyph name="breve" format="1">
  <advance width="484"/>
  <unicode hex="02D8"/>
  <outline>
    <contour>
      <point x="332" y="710" type="line"/>
      <point x="326" y="662"/>
      <point x="295" y="628"/>
      <point x="242" y="628" type="curve" smooth="yes"/>
      <point x="189" y="628"/>
      <point x="158" y="662"/>
      <point x="152" y="710" type="curve"/>
      <point x="80" y="710" type="line"/>
      <point x="83" y="618"/>
      <point x="152" y="560"/>
      <point x="242" y="560" type="curve" smooth="yes"/>
      <point x="332" y="560"/>
      <point x="401" y="618"/>
      <point x="404" y="710" type="curve"/>
    </contour>
    <contour>
      <point x="242" y="500" type="move" name="_top"/>
    </contour>
  </outline>
</glyph>
<glyph name="dotaccent" format="1">
  <advance width="300"/>
  <unicode hex="02D9"/>
  <outline>
    <contour>
      <point x="115" y="680"/>
      <point x="87" y="652"/>
      <point x="87" y="617" type="curve" smooth="yes"/>
      <point x="87" y="583"/>
      <point x="115" y="554"/>
      <point x="150" y="554" type="curve"/>
      <point x="184" y="554"/>
      <point x="213" y="583"/>
      <point x="213" y="617" type="curve" smooth="yes"/>
      <point x="213" y="652"/>
      <point x="184" y="680"/>
      <point x="150" y="680" type="curve" smooth="yes"/>
    </contour>
    <contour>
      <point x="150" y="500" type="move" name="_top"/>
    </contour>
  </outline>
</glyph>
<glyph name="tilde" format="1">
  <advance width="470"/>
  <unicode hex="02DC"/>
  <outline>
    <contour>
      <point x="342" y="693" type="line"/>
      <point x="342" y="668"/>
      <point x="330" y="647"/>
      <point x="306" y="647" type="curve" smooth="yes"/>
      <point x="264" y="647"/>
      <point x="253" y="698"/>
      <point x="180" y="698" type="curve" smooth="yes"/>
      <point x="120" y="698"/>
      <point x="76" y="653"/>
      <point x="76" y="595" type="curve"/>
      <point x="144" y="595" type="line"/>
      <point x="144" y="620"/>
      <point x="157" y="641"/>
      <point x="180" y="641" type="curve" smooth="yes"/>
      <point x="222" y="641"/>
      <point x="233" y="590"/>
      <point x="306" y="590" type="curve" smooth="yes"/>
      <point x="366" y="590"/>
      <point x="410" y="635"/>
      <point x="410" y="693" type="curve"/>
    </contour>
    <contour>
      <point x="236" y="516" type="move" name="_top"/>
    </contour>
  </outline>
</glyph>
<glyph name="quoteright" format="1">
  <advance width="212"/>
  <unicode hex="2019"/>
  <outline>
    <contour>
      <point x="20" y="439" type="line"/>
      <point x="82" y="423" type="line"/>
      <point x="192" y="660" type="line"/>
      <point x="110" y="688" type="line"/>
    </contour>
  </outline>
</glyph>
<glyph name="idotless" format="1">
  <advance width="303"/>
  <outline>
    <contour>
      <point x="136" y="500" type="line"/>
      <point x="136" y="0" type="line"/>
      <point x="218" y="0" type="line"/>
      <point x="218" y="500" type="line"/>
    </contour>
    <contour>
      <point x="55" y="500" type="line"/>
      <point x="55" y="423" type="line"/>
      <point x="218" y="423" type="line"/>
      <point x="218" y="500" type="line"/>
    </contour>
    <contour>
      <point x="218" y="0" type="move" name="ogonek"/>
    </contour>
    <contour>
      <point x="177" y="500" type="move" name="top"/>
    </contour>
  </outline>
</glyph>
